G04 #@! TF.FileFunction,Copper,L1,Top,Signal*
%FSLAX46Y46*%
G04 Gerber Fmt 4.6, Leading zero omitted, Abs format (unit mm)*
G04 Created by KiCad (PCBNEW 4.0.4+e1-6308~48~ubuntu16.04.1-stable) date Fri Sep  9 22:58:31 2016*
%MOMM*%
%LPD*%
G01*
G04 APERTURE LIST*
%ADD10C,0.100000*%
%ADD11R,1.727200X1.727200*%
%ADD12O,1.727200X1.727200*%
%ADD13C,2.000000*%
%ADD14R,1.900000X2.000000*%
%ADD15C,1.900000*%
%ADD16C,1.778000*%
%ADD17R,1.778000X1.778000*%
%ADD18O,2.300000X1.600000*%
%ADD19R,2.032000X2.032000*%
%ADD20O,2.032000X2.032000*%
%ADD21R,2.540000X2.540000*%
%ADD22C,2.540000*%
%ADD23O,2.999740X1.998980*%
%ADD24O,1.998980X2.999740*%
%ADD25O,3.048000X1.727200*%
%ADD26R,1.800860X3.500120*%
%ADD27R,1.700000X2.000000*%
%ADD28R,2.000000X1.700000*%
%ADD29C,0.685800*%
%ADD30C,0.381000*%
%ADD31C,0.762000*%
G04 APERTURE END LIST*
D10*
D11*
X46990000Y-45720000D03*
D12*
X46990000Y-43180000D03*
X49530000Y-45720000D03*
X49530000Y-43180000D03*
X52070000Y-45720000D03*
X52070000Y-43180000D03*
X54610000Y-45720000D03*
X54610000Y-43180000D03*
X57150000Y-45720000D03*
X57150000Y-43180000D03*
X59690000Y-45720000D03*
X59690000Y-43180000D03*
X62230000Y-45720000D03*
X62230000Y-43180000D03*
X64770000Y-45720000D03*
X64770000Y-43180000D03*
X67310000Y-45720000D03*
X67310000Y-43180000D03*
X69850000Y-45720000D03*
X69850000Y-43180000D03*
X72390000Y-45720000D03*
X72390000Y-43180000D03*
X74930000Y-45720000D03*
X74930000Y-43180000D03*
X77470000Y-45720000D03*
X77470000Y-43180000D03*
X80010000Y-45720000D03*
X80010000Y-43180000D03*
X82550000Y-45720000D03*
X82550000Y-43180000D03*
X85090000Y-45720000D03*
X85090000Y-43180000D03*
X87630000Y-45720000D03*
X87630000Y-43180000D03*
X90170000Y-45720000D03*
X90170000Y-43180000D03*
X92710000Y-45720000D03*
X92710000Y-43180000D03*
X95250000Y-45720000D03*
X95250000Y-43180000D03*
D13*
X40640000Y-67310000D03*
X81280000Y-67310000D03*
X40640000Y-52070000D03*
X81280000Y-52070000D03*
D14*
X78740000Y-73660000D03*
D15*
X81280000Y-73660000D03*
D16*
X40640000Y-72390000D03*
D17*
X40640000Y-85090000D03*
D16*
X43180000Y-72390000D03*
D17*
X43180000Y-85090000D03*
D18*
X87630000Y-72390000D03*
X87630000Y-74930000D03*
X87630000Y-77470000D03*
X87630000Y-80010000D03*
X95250000Y-80010000D03*
X95250000Y-77470000D03*
X95250000Y-74930000D03*
X95250000Y-72390000D03*
D19*
X85090000Y-55880000D03*
D20*
X85090000Y-53340000D03*
D21*
X100330000Y-57150000D03*
D22*
X100330000Y-52070000D03*
D23*
X71120000Y-90170000D03*
D24*
X73660000Y-92710000D03*
X73660000Y-87630000D03*
D23*
X71120000Y-77470000D03*
D24*
X73660000Y-80010000D03*
X73660000Y-74930000D03*
D13*
X54610000Y-72390000D03*
X54610000Y-77470000D03*
X54610000Y-82550000D03*
X46990000Y-72390000D03*
X46990000Y-77470000D03*
X46990000Y-82550000D03*
X46990000Y-90170000D03*
X54610000Y-90170000D03*
X67310000Y-72390000D03*
X67310000Y-77470000D03*
X67310000Y-82550000D03*
X59690000Y-72390000D03*
X59690000Y-77470000D03*
X59690000Y-82550000D03*
X59690000Y-90170000D03*
X67310000Y-90170000D03*
D25*
X92710000Y-87630000D03*
X92710000Y-92710000D03*
X80010000Y-87630000D03*
X80010000Y-92710000D03*
D24*
X88900000Y-63500000D03*
D23*
X86360000Y-66040000D03*
X91440000Y-66040000D03*
D26*
X101600000Y-85549740D03*
X101600000Y-79550260D03*
X93980000Y-57609740D03*
X93980000Y-51610260D03*
X88900000Y-51610260D03*
X88900000Y-57609740D03*
D27*
X99060000Y-75660000D03*
X99060000Y-71660000D03*
D28*
X97060000Y-62230000D03*
X101060000Y-62230000D03*
X101060000Y-66040000D03*
X97060000Y-66040000D03*
X74390000Y-83820000D03*
X70390000Y-83820000D03*
X79280000Y-81280000D03*
X83280000Y-81280000D03*
D29*
X93980000Y-66040000D03*
X91440000Y-54610000D03*
X86360000Y-58420000D03*
X49530000Y-90170000D03*
X48260000Y-80010000D03*
X62230000Y-74930000D03*
X48260000Y-74930000D03*
X67310000Y-58420000D03*
X67310000Y-69850000D03*
D30*
X95250000Y-74930000D02*
X96520000Y-74930000D01*
X97790000Y-73660000D02*
X101600000Y-73660000D01*
X96520000Y-74930000D02*
X97790000Y-73660000D01*
X101060000Y-62230000D02*
X101060000Y-66040000D01*
X101600000Y-79550260D02*
X101600000Y-74930000D01*
X101600000Y-74930000D02*
X101600000Y-73660000D01*
X101600000Y-73660000D02*
X101600000Y-66580000D01*
X101600000Y-66580000D02*
X101060000Y-66040000D01*
D31*
X101600000Y-85549740D02*
X94790260Y-85549740D01*
X94790260Y-85549740D02*
X92710000Y-87630000D01*
X88900000Y-51610260D02*
X88440260Y-51610260D01*
X88440260Y-51610260D02*
X87630000Y-50800000D01*
X82550000Y-50800000D02*
X81280000Y-52070000D01*
X87630000Y-50800000D02*
X82550000Y-50800000D01*
X97060000Y-66040000D02*
X93980000Y-66040000D01*
X91440000Y-54610000D02*
X91440000Y-55069740D01*
X91440000Y-55069740D02*
X93980000Y-57609740D01*
X91440000Y-54610000D02*
X88900000Y-52070000D01*
X88900000Y-52070000D02*
X88900000Y-51610260D01*
X87170260Y-57609740D02*
X88900000Y-57609740D01*
X86360000Y-58420000D02*
X87170260Y-57609740D01*
D30*
X81280000Y-73660000D02*
X85090000Y-69850000D01*
X97790000Y-69850000D02*
X99060000Y-71120000D01*
X85090000Y-69850000D02*
X97790000Y-69850000D01*
X99060000Y-71120000D02*
X99060000Y-71660000D01*
X40640000Y-72390000D02*
X40640000Y-76200000D01*
X49530000Y-90170000D02*
X54610000Y-90170000D01*
X44450000Y-80010000D02*
X48260000Y-80010000D01*
X40640000Y-76200000D02*
X44450000Y-80010000D01*
X54610000Y-90170000D02*
X57150000Y-92710000D01*
X57150000Y-92710000D02*
X73660000Y-92710000D01*
D31*
X96520000Y-54610000D02*
X96520000Y-54150260D01*
X96520000Y-54150260D02*
X93980000Y-51610260D01*
X96155000Y-61325000D02*
X95790000Y-60960000D01*
X95790000Y-60960000D02*
X95790000Y-60420000D01*
X96520000Y-54610000D02*
X99060000Y-52070000D01*
X96520000Y-59690000D02*
X96520000Y-54610000D01*
X95790000Y-60420000D02*
X96520000Y-59690000D01*
X99060000Y-52070000D02*
X100330000Y-52070000D01*
X91440000Y-66040000D02*
X93980000Y-63500000D01*
X93980000Y-63500000D02*
X93980000Y-60960000D01*
X54610000Y-72390000D02*
X54610000Y-67310000D01*
X96155000Y-61325000D02*
X97060000Y-62230000D01*
X60960000Y-60960000D02*
X93980000Y-60960000D01*
X93980000Y-60960000D02*
X95790000Y-60960000D01*
X54610000Y-67310000D02*
X60960000Y-60960000D01*
X50800000Y-87630000D02*
X50800000Y-73660000D01*
X52070000Y-72390000D02*
X54610000Y-72390000D01*
X50800000Y-73660000D02*
X52070000Y-72390000D01*
X46990000Y-90170000D02*
X46990000Y-87630000D01*
X40640000Y-85090000D02*
X43180000Y-85090000D01*
X43180000Y-85090000D02*
X45720000Y-87630000D01*
X45720000Y-87630000D02*
X46990000Y-87630000D01*
X46990000Y-87630000D02*
X50800000Y-87630000D01*
X50800000Y-87630000D02*
X58420000Y-87630000D01*
X58420000Y-87630000D02*
X59690000Y-88900000D01*
X59690000Y-88900000D02*
X59690000Y-90170000D01*
D30*
X96520000Y-62230000D02*
X97060000Y-62230000D01*
X43180000Y-72390000D02*
X43180000Y-73660000D01*
X63500000Y-76200000D02*
X63500000Y-80010000D01*
X62230000Y-74930000D02*
X63500000Y-76200000D01*
X44450000Y-74930000D02*
X48260000Y-74930000D01*
X43180000Y-73660000D02*
X44450000Y-74930000D01*
X67310000Y-90170000D02*
X63500000Y-86360000D01*
X63500000Y-86360000D02*
X63500000Y-80010000D01*
X63500000Y-80010000D02*
X73660000Y-80010000D01*
X87630000Y-74930000D02*
X86360000Y-74930000D01*
X85090000Y-80010000D02*
X83820000Y-81280000D01*
X85090000Y-76200000D02*
X85090000Y-80010000D01*
X86360000Y-74930000D02*
X85090000Y-76200000D01*
X83820000Y-81280000D02*
X83280000Y-81280000D01*
X74390000Y-83820000D02*
X90170000Y-83820000D01*
X90170000Y-77470000D02*
X87630000Y-77470000D01*
X91440000Y-78740000D02*
X90170000Y-77470000D01*
X91440000Y-82550000D02*
X91440000Y-78740000D01*
X90170000Y-83820000D02*
X91440000Y-82550000D01*
X80010000Y-92710000D02*
X82550000Y-92710000D01*
X93980000Y-80010000D02*
X95250000Y-80010000D01*
X92710000Y-81280000D02*
X93980000Y-80010000D01*
X92710000Y-83820000D02*
X92710000Y-81280000D01*
X91440000Y-85090000D02*
X92710000Y-83820000D01*
X85090000Y-85090000D02*
X91440000Y-85090000D01*
X83820000Y-86360000D02*
X85090000Y-85090000D01*
X83820000Y-91440000D02*
X83820000Y-86360000D01*
X82550000Y-92710000D02*
X83820000Y-91440000D01*
X95250000Y-77470000D02*
X97790000Y-77470000D01*
X97790000Y-77470000D02*
X99060000Y-76200000D01*
X99060000Y-76200000D02*
X99060000Y-75660000D01*
X67310000Y-72390000D02*
X67310000Y-69850000D01*
X69850000Y-55880000D02*
X85090000Y-55880000D01*
X67310000Y-58420000D02*
X69850000Y-55880000D01*
X85090000Y-53340000D02*
X83820000Y-53340000D01*
X59690000Y-53340000D02*
X59690000Y-45720000D01*
X60960000Y-54610000D02*
X59690000Y-53340000D01*
X82550000Y-54610000D02*
X60960000Y-54610000D01*
X83820000Y-53340000D02*
X82550000Y-54610000D01*
D31*
X46990000Y-43180000D02*
X46990000Y-41910000D01*
X40640000Y-67310000D02*
X44450000Y-63500000D01*
X48260000Y-41910000D02*
X49530000Y-43180000D01*
X45720000Y-41910000D02*
X46990000Y-41910000D01*
X46990000Y-41910000D02*
X48260000Y-41910000D01*
X44450000Y-43180000D02*
X45720000Y-41910000D01*
X44450000Y-63500000D02*
X44450000Y-43180000D01*
D30*
X71120000Y-90170000D02*
X71120000Y-84550000D01*
X71120000Y-84550000D02*
X70390000Y-83820000D01*
X71120000Y-77470000D02*
X74930000Y-77470000D01*
X74930000Y-77470000D02*
X78740000Y-81280000D01*
X78740000Y-81280000D02*
X79280000Y-81280000D01*
D31*
X81280000Y-67310000D02*
X58420000Y-67310000D01*
X57150000Y-80010000D02*
X54610000Y-82550000D01*
X57150000Y-68580000D02*
X57150000Y-80010000D01*
X58420000Y-67310000D02*
X57150000Y-68580000D01*
M02*
