M48
;DRILL file {KiCad 4.0.4+e1-6308~48~ubuntu16.04.1-stable} date Fri Sep  9 22:58:42 2016
;FORMAT={-:-/ absolute / inch / decimal}
FMAT,2
INCH,TZ
T1C0.013
T2C0.031
T3C0.032
T4C0.039
T5C0.039
T6C0.040
T7C0.045
T8C0.060
%
G90
G05
M72
T1
X1.9Y-2.95
X1.9Y-3.15
X1.95Y-3.55
X2.45Y-2.95
X2.65Y-2.3
X2.65Y-2.75
X3.4Y-2.3
X3.6Y-2.15
X3.7Y-2.6
T2
X1.6Y-2.05
X1.6Y-2.65
X1.85Y-2.85
X1.85Y-3.05
X1.85Y-3.25
X1.85Y-3.55
X2.15Y-2.85
X2.15Y-3.05
X2.15Y-3.25
X2.15Y-3.55
X2.35Y-2.85
X2.35Y-3.05
X2.35Y-3.25
X2.35Y-3.55
X2.65Y-2.85
X2.65Y-3.05
X2.65Y-3.25
X2.65Y-3.55
X3.2Y-2.05
X3.2Y-2.65
X3.45Y-2.85
X3.45Y-2.95
X3.45Y-3.05
X3.45Y-3.15
X3.75Y-2.85
X3.75Y-2.95
X3.75Y-3.05
X3.75Y-3.15
T3
X3.15Y-3.45
X3.15Y-3.65
X3.65Y-3.45
X3.65Y-3.65
T4
X2.8Y-3.05
X2.8Y-3.55
X2.9Y-2.95
X2.9Y-3.15
X2.9Y-3.45
X2.9Y-3.65
X3.4Y-2.6
X3.5Y-2.5
X3.6Y-2.6
T5
X3.1Y-2.9
X3.2Y-2.9
T6
X1.85Y-1.7
X1.85Y-1.8
X1.95Y-1.7
X1.95Y-1.8
X2.05Y-1.7
X2.05Y-1.8
X2.15Y-1.7
X2.15Y-1.8
X2.25Y-1.7
X2.25Y-1.8
X2.35Y-1.7
X2.35Y-1.8
X2.45Y-1.7
X2.45Y-1.8
X2.55Y-1.7
X2.55Y-1.8
X2.65Y-1.7
X2.65Y-1.8
X2.75Y-1.7
X2.75Y-1.8
X2.85Y-1.7
X2.85Y-1.8
X2.95Y-1.7
X2.95Y-1.8
X3.05Y-1.7
X3.05Y-1.8
X3.15Y-1.7
X3.15Y-1.8
X3.25Y-1.7
X3.25Y-1.8
X3.35Y-1.7
X3.35Y-1.8
X3.35Y-2.1
X3.35Y-2.2
X3.45Y-1.7
X3.45Y-1.8
X3.55Y-1.7
X3.55Y-1.8
X3.65Y-1.7
X3.65Y-1.8
X3.75Y-1.7
X3.75Y-1.8
T7
X1.6Y-2.85
X1.6Y-3.35
X1.7Y-2.85
X1.7Y-3.35
T8
X3.95Y-2.05
X3.95Y-2.25
T0
M30
