G04 #@! TF.FileFunction,Copper,L2,Bot,Signal*
%FSLAX46Y46*%
G04 Gerber Fmt 4.6, Leading zero omitted, Abs format (unit mm)*
G04 Created by KiCad (PCBNEW 4.0.4+e1-6308~48~ubuntu16.04.1-stable) date Fri Sep  9 22:58:31 2016*
%MOMM*%
%LPD*%
G01*
G04 APERTURE LIST*
%ADD10C,0.100000*%
%ADD11R,1.727200X1.727200*%
%ADD12O,1.727200X1.727200*%
%ADD13C,2.000000*%
%ADD14R,1.900000X2.000000*%
%ADD15C,1.900000*%
%ADD16C,1.778000*%
%ADD17R,1.778000X1.778000*%
%ADD18O,2.300000X1.600000*%
%ADD19R,2.032000X2.032000*%
%ADD20O,2.032000X2.032000*%
%ADD21R,2.540000X2.540000*%
%ADD22C,2.540000*%
%ADD23O,2.999740X1.998980*%
%ADD24O,1.998980X2.999740*%
%ADD25O,3.048000X1.727200*%
%ADD26C,0.685800*%
%ADD27C,0.762000*%
%ADD28C,0.381000*%
G04 APERTURE END LIST*
D10*
D11*
X46990000Y-45720000D03*
D12*
X46990000Y-43180000D03*
X49530000Y-45720000D03*
X49530000Y-43180000D03*
X52070000Y-45720000D03*
X52070000Y-43180000D03*
X54610000Y-45720000D03*
X54610000Y-43180000D03*
X57150000Y-45720000D03*
X57150000Y-43180000D03*
X59690000Y-45720000D03*
X59690000Y-43180000D03*
X62230000Y-45720000D03*
X62230000Y-43180000D03*
X64770000Y-45720000D03*
X64770000Y-43180000D03*
X67310000Y-45720000D03*
X67310000Y-43180000D03*
X69850000Y-45720000D03*
X69850000Y-43180000D03*
X72390000Y-45720000D03*
X72390000Y-43180000D03*
X74930000Y-45720000D03*
X74930000Y-43180000D03*
X77470000Y-45720000D03*
X77470000Y-43180000D03*
X80010000Y-45720000D03*
X80010000Y-43180000D03*
X82550000Y-45720000D03*
X82550000Y-43180000D03*
X85090000Y-45720000D03*
X85090000Y-43180000D03*
X87630000Y-45720000D03*
X87630000Y-43180000D03*
X90170000Y-45720000D03*
X90170000Y-43180000D03*
X92710000Y-45720000D03*
X92710000Y-43180000D03*
X95250000Y-45720000D03*
X95250000Y-43180000D03*
D13*
X40640000Y-67310000D03*
X81280000Y-67310000D03*
X40640000Y-52070000D03*
X81280000Y-52070000D03*
D14*
X78740000Y-73660000D03*
D15*
X81280000Y-73660000D03*
D16*
X40640000Y-72390000D03*
D17*
X40640000Y-85090000D03*
D16*
X43180000Y-72390000D03*
D17*
X43180000Y-85090000D03*
D18*
X87630000Y-72390000D03*
X87630000Y-74930000D03*
X87630000Y-77470000D03*
X87630000Y-80010000D03*
X95250000Y-80010000D03*
X95250000Y-77470000D03*
X95250000Y-74930000D03*
X95250000Y-72390000D03*
D19*
X85090000Y-55880000D03*
D20*
X85090000Y-53340000D03*
D21*
X100330000Y-57150000D03*
D22*
X100330000Y-52070000D03*
D23*
X71120000Y-90170000D03*
D24*
X73660000Y-92710000D03*
X73660000Y-87630000D03*
D23*
X71120000Y-77470000D03*
D24*
X73660000Y-80010000D03*
X73660000Y-74930000D03*
D13*
X54610000Y-72390000D03*
X54610000Y-77470000D03*
X54610000Y-82550000D03*
X46990000Y-72390000D03*
X46990000Y-77470000D03*
X46990000Y-82550000D03*
X46990000Y-90170000D03*
X54610000Y-90170000D03*
X67310000Y-72390000D03*
X67310000Y-77470000D03*
X67310000Y-82550000D03*
X59690000Y-72390000D03*
X59690000Y-77470000D03*
X59690000Y-82550000D03*
X59690000Y-90170000D03*
X67310000Y-90170000D03*
D25*
X92710000Y-87630000D03*
X92710000Y-92710000D03*
X80010000Y-87630000D03*
X80010000Y-92710000D03*
D24*
X88900000Y-63500000D03*
D23*
X86360000Y-66040000D03*
X91440000Y-66040000D03*
D26*
X93980000Y-66040000D03*
X91440000Y-54610000D03*
X86360000Y-58420000D03*
X49530000Y-90170000D03*
X48260000Y-80010000D03*
X62230000Y-74930000D03*
X48260000Y-74930000D03*
X67310000Y-58420000D03*
X67310000Y-69850000D03*
D27*
X67310000Y-82550000D02*
X66040000Y-82550000D01*
X66040000Y-74930000D02*
X73660000Y-74930000D01*
X64770000Y-76200000D02*
X66040000Y-74930000D01*
X64770000Y-81280000D02*
X64770000Y-76200000D01*
X66040000Y-82550000D02*
X64770000Y-81280000D01*
X73660000Y-74930000D02*
X74930000Y-73660000D01*
X74930000Y-73660000D02*
X78740000Y-73660000D01*
X78740000Y-73660000D02*
X78740000Y-52070000D01*
X67310000Y-82550000D02*
X67310000Y-86360000D01*
X68580000Y-87630000D02*
X73660000Y-87630000D01*
X67310000Y-86360000D02*
X68580000Y-87630000D01*
X73660000Y-87630000D02*
X80010000Y-87630000D01*
X80010000Y-87630000D02*
X92710000Y-87630000D01*
X92710000Y-87630000D02*
X92710000Y-85090000D01*
X92710000Y-85090000D02*
X87630000Y-80010000D01*
X57150000Y-45720000D02*
X57150000Y-52070000D01*
X40640000Y-52070000D02*
X57150000Y-52070000D01*
X57150000Y-52070000D02*
X78740000Y-52070000D01*
X78740000Y-52070000D02*
X81280000Y-52070000D01*
X93980000Y-64770000D02*
X91440000Y-62230000D01*
X93980000Y-66040000D02*
X93980000Y-64770000D01*
X93980000Y-57150000D02*
X91440000Y-59690000D01*
X90170000Y-63500000D02*
X88900000Y-63500000D01*
X91440000Y-62230000D02*
X90170000Y-63500000D01*
X91440000Y-59690000D02*
X91440000Y-62230000D01*
X100330000Y-57150000D02*
X93980000Y-57150000D01*
X93980000Y-57150000D02*
X91440000Y-54610000D01*
X86360000Y-66040000D02*
X86360000Y-67310000D01*
X91440000Y-68580000D02*
X95250000Y-72390000D01*
X87630000Y-68580000D02*
X91440000Y-68580000D01*
X86360000Y-67310000D02*
X87630000Y-68580000D01*
X86360000Y-66040000D02*
X86360000Y-58420000D01*
D28*
X49530000Y-81280000D02*
X49530000Y-90170000D01*
X48260000Y-80010000D02*
X49530000Y-81280000D01*
X48260000Y-74930000D02*
X62230000Y-74930000D01*
X67310000Y-69850000D02*
X67310000Y-58420000D01*
M02*
